<svg width="186" height="34" viewBox="0 0 186 34" fill="none" xmlns="http://www.w3.org/2000/svg">
<path d="M144.144 15.392C144.384 15.392 144.576 15.584 144.576 15.808V20.208C144.576 21.088 143.968 21.28 143.712 21.36C142.512 21.696 141.68 22.064 139.808 22.064C136.672 22.064 134.336 19.52 134.336 16.384C134.336 13.248 136.672 10.704 139.808 10.704C141.68 10.704 142.24 10.976 143.424 11.328C143.872 11.456 144.048 11.856 143.904 12.256C143.808 12.512 143.712 12.752 143.616 13.008C143.488 13.36 143.104 13.552 142.768 13.456C142.064 13.248 141.328 12.928 139.808 12.928C137.904 12.928 136.624 14.336 136.624 16.384C136.624 18.432 137.904 19.856 139.808 19.856C140.992 19.856 141.696 19.648 142.288 19.472V17.6H140.112C139.888 17.6 139.696 17.408 139.696 17.184V15.808C139.696 15.584 139.888 15.392 140.112 15.392H144.128H144.144ZM148.381 21.568C148.381 21.808 148.189 22 147.933 22H146.573C146.333 22 146.141 21.808 146.141 21.568V11.2C146.141 10.96 146.333 10.768 146.573 10.768H146.701C148.109 10.768 148.381 11.824 148.381 12.944C148.381 14.08 148.381 21.568 148.381 21.568ZM156.855 14.032C157.095 14.032 157.303 14.224 157.303 14.464V21.568C157.303 21.808 157.095 22 156.855 22H156.743C155.799 22 155.367 21.536 155.175 20.896C154.599 21.632 153.783 22.064 152.775 22.064C150.727 22.064 149.415 20.544 149.415 18.4C149.415 15.584 151.127 13.968 152.887 13.968C153.975 13.968 154.775 14.336 155.367 14.72C155.607 14.304 156.023 14.032 156.743 14.032H156.855ZM153.207 19.904C154.247 19.904 155.015 19.12 155.063 17.44V16.48C154.695 16.336 154.135 16.128 153.607 16.128C152.503 16.128 151.639 16.624 151.639 18.304C151.639 19.408 152.295 19.904 153.207 19.904ZM164.065 19.36C164.065 20.928 163.089 22.064 161.137 22.064C160.225 22.064 159.473 21.984 158.833 21.792C158.529 21.712 158.337 21.504 158.417 21.232C158.497 20.896 158.625 20.496 158.721 20.144C158.833 19.76 159.185 19.712 159.393 19.776C159.681 19.856 160.353 20.016 161.025 20.016C161.745 20.016 161.825 19.84 161.825 19.616C161.825 19.328 161.329 19.136 160.561 18.912C159.937 18.72 158.289 18.192 158.289 16.496C158.289 15.12 159.329 13.968 160.993 13.968C161.745 13.968 162.529 14.096 163.121 14.272C163.441 14.368 163.633 14.528 163.569 14.816C163.489 15.152 163.393 15.52 163.297 15.904C163.201 16.288 162.849 16.352 162.641 16.304C162.353 16.224 161.809 16.016 161.137 16.016C160.785 16.016 160.529 16.16 160.529 16.384C160.529 16.72 161.089 16.8 161.681 17.008C162.417 17.264 164.065 17.68 164.065 19.36ZM170.081 19.36C170.081 20.928 169.105 22.064 167.153 22.064C166.241 22.064 165.489 21.984 164.849 21.792C164.545 21.712 164.353 21.504 164.433 21.232C164.513 20.896 164.641 20.496 164.737 20.144C164.849 19.76 165.201 19.712 165.409 19.776C165.697 19.856 166.369 20.016 167.041 20.016C167.761 20.016 167.841 19.84 167.841 19.616C167.841 19.328 167.345 19.136 166.577 18.912C165.953 18.72 164.305 18.192 164.305 16.496C164.305 15.12 165.345 13.968 167.009 13.968C167.761 13.968 168.545 14.096 169.137 14.272C169.457 14.368 169.649 14.528 169.585 14.816C169.505 15.152 169.409 15.52 169.313 15.904C169.217 16.288 168.865 16.352 168.657 16.304C168.369 16.224 167.825 16.016 167.153 16.016C166.801 16.016 166.545 16.16 166.545 16.384C166.545 16.72 167.105 16.8 167.697 17.008C168.433 17.264 170.081 17.68 170.081 19.36ZM177.494 19.712C177.638 20.032 177.846 20.512 177.99 20.848C178.118 21.104 177.958 21.328 177.67 21.456C176.55 21.936 175.974 22.064 174.934 22.064C172.598 22.064 170.774 20.256 170.774 18.016C170.774 15.776 172.582 13.968 174.822 13.968C176.294 13.968 177.51 14.608 178.006 15.856C178.79 17.824 177.094 18.688 175.174 18.832C174.454 18.896 173.814 18.944 173.254 18.992C173.574 19.552 174.198 19.904 174.934 19.904C175.862 19.904 176.262 19.696 176.774 19.456C176.966 19.36 177.334 19.36 177.494 19.712ZM174.902 15.856C173.974 15.936 173.35 16.528 173.11 17.296C173.75 17.248 174.454 17.2 174.982 17.152C175.494 17.12 176.038 17.008 175.958 16.56C175.894 16.144 175.478 15.808 174.902 15.856ZM184.878 19.36C184.878 20.928 183.902 22.064 181.95 22.064C181.038 22.064 180.286 21.984 179.646 21.792C179.342 21.712 179.15 21.504 179.23 21.232C179.31 20.896 179.438 20.496 179.534 20.144C179.646 19.76 179.998 19.712 180.206 19.776C180.494 19.856 181.166 20.016 181.838 20.016C182.558 20.016 182.638 19.84 182.638 19.616C182.638 19.328 182.142 19.136 181.374 18.912C180.75 18.72 179.102 18.192 179.102 16.496C179.102 15.12 180.142 13.968 181.806 13.968C182.558 13.968 183.342 14.096 183.934 14.272C184.254 14.368 184.446 14.528 184.382 14.816C184.302 15.152 184.206 15.52 184.11 15.904C184.014 16.288 183.662 16.352 183.454 16.304C183.166 16.224 182.622 16.016 181.95 16.016C181.598 16.016 181.342 16.16 181.342 16.384C181.342 16.72 181.902 16.8 182.494 17.008C183.23 17.264 184.878 17.68 184.878 19.36Z" fill="black"/>
<path d="M11.728 16.384C11.728 19.12 9.792 21.408 7.232 21.952L9.648 23.808C9.824 23.952 9.856 24.208 9.712 24.4L8.848 25.456C8.704 25.632 8.432 25.664 8.256 25.52C8.256 25.52 2.576 20.912 2.56 20.896C1.216 19.856 0.352 18.224 0.352 16.384C0.352 13.248 2.896 10.704 6.032 10.704C9.184 10.704 11.728 13.248 11.728 16.384ZM6.032 19.856C7.936 19.856 9.44 18.432 9.44 16.384C9.44 14.336 7.936 12.928 6.032 12.928C4.128 12.928 2.64 14.336 2.64 16.384C2.64 18.432 4.128 19.856 6.032 19.856ZM17.9021 18.592C17.9021 18.592 17.8861 17.344 17.8861 16.208C17.8861 15.088 18.1581 14.032 19.5661 14.032H19.6941C19.9341 14.032 20.1261 14.224 20.1261 14.464V18.592C20.1261 20.64 18.5741 22.064 16.4461 22.064C14.3021 22.064 12.7501 20.64 12.7501 18.592C12.7501 18.592 12.7501 17.344 12.7501 16.208C12.7501 15.088 13.0221 14.032 14.4301 14.032H14.5421C14.7821 14.032 14.9901 14.224 14.9901 14.464V18.592C14.9901 19.504 15.5341 19.904 16.4461 19.904C17.3421 19.904 17.9021 19.504 17.9021 18.592ZM28.5733 14.032C28.8133 14.032 29.0213 14.224 29.0213 14.464V21.568C29.0213 21.808 28.8133 22 28.5733 22H28.4613C27.5173 22 27.0853 21.536 26.8933 20.896C26.3173 21.632 25.5013 22.064 24.4933 22.064C22.4453 22.064 21.1333 20.544 21.1333 18.4C21.1333 15.584 22.8453 13.968 24.6053 13.968C25.6933 13.968 26.4933 14.336 27.0853 14.72C27.3253 14.304 27.7413 14.032 28.4613 14.032H28.5733ZM24.9253 19.904C25.9653 19.904 26.7333 19.12 26.7813 17.44V16.48C26.4133 16.336 25.8533 16.128 25.3253 16.128C24.2213 16.128 23.3573 16.624 23.3573 18.304C23.3573 19.408 24.0133 19.904 24.9253 19.904ZM32.8026 21.568C32.8026 21.808 32.6106 22 32.3546 22H30.9946C30.7546 22 30.5626 21.808 30.5626 21.568V11.2C30.5626 10.96 30.7546 10.768 30.9946 10.768H31.1226C32.5306 10.768 32.8026 11.824 32.8026 12.944C32.8026 14.08 32.8026 21.568 32.8026 21.568ZM36.1671 14.032C36.4071 14.032 36.5991 14.224 36.5991 14.464V21.568C36.5991 21.808 36.4071 22 36.1671 22H34.8071C34.5671 22 34.3751 21.808 34.3751 21.568C34.3751 21.568 34.3751 17.344 34.3751 16.208C34.3751 15.088 34.6311 14.032 36.0391 14.032H36.1671ZM35.4791 13.056C34.7911 13.056 34.2151 12.48 34.2151 11.776C34.2151 11.072 34.7911 10.512 35.4791 10.512C36.1831 10.512 36.7591 11.072 36.7591 11.776C36.7591 12.48 36.1831 13.056 35.4791 13.056ZM44.1456 21.312C44.2096 21.6 44.0016 21.792 43.6816 21.84C43.0416 22 42.6256 22.064 41.8736 22.064C39.9216 22.064 38.9136 20.752 38.9136 18.992V16.192H38.0016C37.7776 16.192 37.5856 16 37.5856 15.776V14.448C37.5856 14.224 37.7776 14.032 38.0016 14.032H38.9136C38.9616 13.008 39.2816 12.112 40.5776 12.112H40.7056C40.9456 12.112 41.1376 12.304 41.1376 12.544V14.032H43.4096C43.6336 14.032 43.8256 14.224 43.8256 14.448V14.64C43.8256 15.84 42.8816 16.192 41.9536 16.192H41.1376V18.992C41.1376 19.616 41.1536 19.904 41.8736 19.904C42.3536 19.904 42.9776 19.76 43.2496 19.696C43.4576 19.648 43.8256 19.728 43.9056 20.096C43.9696 20.448 44.0816 20.976 44.1456 21.312ZM52.0789 14.032C52.3189 14.032 52.4469 14.224 52.3509 14.464L49.4389 22.32C48.8789 23.888 48.1909 25.552 46.2389 25.552C46.1109 25.552 45.5989 25.536 45.2309 25.488C44.9269 25.472 44.6869 25.296 44.7189 25.008C44.7509 24.656 44.7989 24.128 44.8309 23.776C44.8629 23.408 45.2149 23.28 45.4229 23.296C45.7109 23.328 46.0149 23.392 46.2389 23.392C47.1189 23.392 47.4869 22.608 47.6949 22H47.6309C47.3909 22 47.1189 21.808 47.0389 21.568L44.4309 14.464C44.3349 14.224 44.4629 14.032 44.7029 14.032H45.0869C46.4949 14.032 47.0389 14.848 47.4229 15.984C47.7109 16.896 48.1109 18.32 48.4149 19.504C48.7189 18.32 49.0229 17.008 49.3749 15.984C49.7429 14.848 50.2869 14.032 51.6949 14.032H52.0789Z" fill="black"/>
<circle cx="78" cy="17" r="15" stroke="black" stroke-width="4"/>
<circle cx="108.6" cy="17" r="15" stroke="black" stroke-width="4"/>
</svg>
